<svg t="1645957545196" class="icon" viewBox="0 0 1024 1024" version="1.1" xmlns="http://www.w3.org/2000/svg" p-id="23937" width="200" height="200"><path d="M128 85.333333a42.666667 42.666667 0 0 1 42.666667 42.666667v682.666667a42.666667 42.666667 0 0 0 42.666666 42.666666h682.666667a42.666667 42.666667 0 1 1 0 85.333334H213.333333a128 128 0 0 1-128-128V128a42.666667 42.666667 0 0 1 42.666667-42.666667z" fill="#1296db" p-id="23938"></path><path d="M725.333333 277.333333a42.666667 42.666667 0 1 0 0 85.333334h67.669334L618.666667 537.002667 508.330667 426.666667a85.333333 85.333333 0 0 0-120.661334 0l-119.168 119.168a42.666667 42.666667 0 1 0 60.330667 60.330666l119.168-119.168L558.336 597.333333a85.333333 85.333333 0 0 0 120.661333 0L853.333333 422.997333V490.666667a42.666667 42.666667 0 1 0 85.333334 0v-170.666667a42.666667 42.666667 0 0 0-42.666667-42.666667h-170.666667z" fill="#1296db" p-id="23939"></path></svg>
