<svg t="1645956184540" class="icon" viewBox="0 0 1024 1024" version="1.1" xmlns="http://www.w3.org/2000/svg" p-id="20076" width="200" height="200"><path d="M831.017322 1022.79055a172.595905 172.595905 0 0 1-191.773228-191.773228V191.773228a191.773228 191.773228 0 0 1 383.546456 0v639.244094a175.216806 175.216806 0 0 1-191.773228 191.773228z m63.924409-831.017322a63.924409 63.924409 0 0 0-127.848818 0v639.244094a63.924409 63.924409 0 0 0 127.848818 0V191.773228zM383.546456 1022.79055a172.595905 172.595905 0 0 1-191.773228-191.773228V191.773228a191.773228 191.773228 0 0 1 383.546456 0v639.244094a175.216806 175.216806 0 0 1-191.773228 191.773228zM447.470866 191.773228a63.924409 63.924409 0 0 0-127.848819 0v639.244094a63.924409 63.924409 0 0 0 127.848819 0V191.773228zM63.924409 1022.79055a63.924409 63.924409 0 1 1 63.92441-63.924409 63.924409 63.924409 0 0 1-63.92441 63.924409z" p-id="20077" fill="#d4237a"></path></svg>
