<svg t="1645954447809" class="icon" viewBox="0 0 1024 1024" version="1.1" xmlns="http://www.w3.org/2000/svg" p-id="10363" width="200" height="200"><path d="M320 320a192 192 0 0 1 192-192v85.333333a106.666667 106.666667 0 0 0-66.56 189.44A128 128 0 0 0 391.466667 469.333333 192 192 0 0 1 320 320z m82.773333 258.56A106.666667 106.666667 0 0 1 213.333333 512H128a192 192 0 0 0 341.333333 120.533333 128 128 0 0 1-66.56-53.973333zM632.533333 554.666667a128 128 0 0 1-53.973333 66.56A106.666667 106.666667 0 0 1 512 810.666667v85.333333a192 192 0 0 0 120.533333-341.333333zM704 320a192 192 0 0 0-149.333333 71.466667 128 128 0 0 1 66.56 53.973333A106.666667 106.666667 0 0 1 810.666667 512h85.333333a192 192 0 0 0-192-192z" p-id="10364" fill="#d4237a"></path></svg>
