<?xml version="1.0" encoding="UTF-8" standalone="no"?>
<!DOCTYPE svg PUBLIC "-//W3C//DTD SVG 1.1//EN" "http://www.w3.org/Graphics/SVG/1.1/DTD/svg11.dtd">
<svg width="100%" height="100%" viewBox="0 0 256 256" version="1.1" xmlns="http://www.w3.org/2000/svg" xmlns:xlink="http://www.w3.org/1999/xlink" xml:space="preserve" xmlns:serif="http://www.serif.com/" style="fill-rule:evenodd;clip-rule:evenodd;stroke-linejoin:round;stroke-miterlimit:2;">
    <g id="SvgjsG2035">
    </g>
    <g transform="matrix(1.84929,0,0,1.84929,62.7285,159.282)">
        <g transform="matrix(0.422591,0,0,0.422591,-303.2,-266.011)">
            <path d="M750.5,449.1C713.1,453.9 689.8,473.6 679.6,509.2C673.9,529.2 673.7,531.2 673.1,625C672.6,703.3 672.3,711.8 670.8,714.6C668.4,718.9 664.8,720.3 654.3,720.8L645,721.2L645,729L769,729L769,721.2L759,720.8C750.9,720.5 748.5,720 746.3,718.4C741,714.4 740.9,713.1 741.2,656.5C741.6,605.8 741.6,604.3 743.9,597C749.2,579.4 758.4,567.3 771,561.2C782.3,555.7 796.8,555.2 807.6,559.9C812.3,562 814.8,564.6 810.5,563C807.1,561.7 796.5,561.7 792,563C778.2,566.8 767.7,582.5 769.4,596.8C772.5,622.7 803.4,634.5 823.1,617.2C831.2,610.1 834.8,598.7 833.1,585.7C830.6,567 820.2,554.6 803.2,549.8C781.7,543.9 754.5,553.1 743.8,569.9L741,574.4L741,534.4C741,492.3 741.6,485.6 745.8,477.4C750.4,468.5 759.9,462.2 772.1,459.9C780.4,458.4 788.1,459.3 795.5,462.8L801.3,465.6L793.9,465.2C780.5,464.5 768.9,471.4 763,483.5C759.5,490.5 759.5,502.2 762.9,509.7C765.7,515.9 773.2,523.3 779.8,526.3C786.9,529.5 797.8,529.3 805,525.9C819.8,519 826,506.6 823.9,488C821.1,463.6 798.4,447.7 766.8,448.1C761.7,448.2 754.4,448.7 750.5,449.1Z" style="fill-rule:nonzero;"/>
        </g>
        <g transform="matrix(0.422591,0,0,0.422591,-303.2,-266.011)">
            <path d="M838.3,551.7C836.5,552.1 836,552.8 836,555.5L836,558.8L843,559.2C851.1,559.6 854.3,561.5 857.8,567.8C863.5,578 863.1,602.3 857,614.6C850.4,628.1 838.2,634.4 809,639.4C779.2,644.6 771.1,648.6 764.6,661.5C759.7,671.4 758.7,689.2 762.5,701.7C765.7,712.4 774.8,721.9 785.8,726C803.1,732.5 833.8,732.4 846.5,725.7C853.2,722.2 859.3,713.6 862.1,704C863.9,697.6 864.5,697.4 865.9,702.2C870.3,716.7 879.7,725.1 895,728C897.9,728.6 913,729 928.6,729L957,729L957,721.2L947.8,720.8C942.7,720.5 937.2,719.7 935.7,719C929.5,716 929.6,716.9 928.9,657C928.3,596.7 928.3,597.4 921.5,583.4C915,570 900.6,559.6 882.7,555C870.1,551.9 846.6,550.1 838.3,551.7ZM860.7,655.5C860.2,682.5 859.4,688.5 855,700.3C850.4,712.6 842.4,720 833.9,720C826.2,720 823.8,712.3 823.6,687C823.5,669.3 824.5,663.1 828.6,654.9C832.1,647.8 835.3,644.7 846.1,637.4C851.7,633.7 857.1,629.2 858.3,627.4L860.5,624.1L860.8,626.8C861,628.3 861,641.2 860.7,655.5Z" style="fill-rule:nonzero;"/>
        </g>
    </g>
</svg>
